{
  "accessors": [
    {
      "bufferView": 2,
      "componentType": 5126,
      "count": 24,
      "max": [
        1.0,
        0.0,
        1.0
      ],
      "min": [
        -1.0,
        -0.03999999910593033,
        -1.0
      ],
      "type": "VEC3"
    },
    {
      "bufferView": 2,
      "byteOffset": 288,
      "componentType": 5126,
      "count": 24,
      "max": [
        1.0,
        1.0,
        1.0
      ],
      "min": [
        -1.0,
        -1.0,
        -1.0
      ],
      "type": "VEC3"
    },
    {
      "bufferView": 1,
      "componentType": 5126,
      "count": 24,
      "max": [
        1.0,
        1.0
      ],
      "min": [
        0.0,
        0.0
      ],
      "type": "VEC2"
    },
    {
      "bufferView": 0,
      "componentType": 5125,
      "count": 36,
      "type": "SCALAR"
    },
    {
      "bufferView": 2,
      "byteOffset": 576,
      "componentType": 5126,
      "count": 24,
      "max": [
        1.0,
        1.0,
        1.0
      ],
      "min": [
        -1.0,
        -1.0,
        -1.0
      ],
      "type": "VEC3"
    },
    {
      "bufferView": 2,
      "byteOffset": 864,
      "componentType": 5126,
      "count": 24,
      "max": [
        1.0,
        1.0,
        1.0
      ],
      "min": [
        -1.0,
        -1.0,
        -1.0
      ],
      "type": "VEC3"
    },
    {
      "bufferView": 1,
      "byteOffset": 192,
      "componentType": 5126,
      "count": 24,
      "max": [
        0.875,
        1.0
      ],
      "min": [
        0.125,
        0.0
      ],
      "type": "VEC2"
    },
    {
      "bufferView": 0,
      "byteOffset": 144,
      "componentType": 5125,
      "count": 36,
      "type": "SCALAR"
    },
    {
      "bufferView": 2,
      "byteOffset": 1152,
      "componentType": 5126,
      "count": 9072,
      "max": [
        0.025004424154758453,
        6.160453796386719,
        0.19264954328536987
      ],
      "min": [
        -12.96537971496582,
        -0.04464244842529297,
        -6.189731597900391
      ],
      "type": "VEC3"
    },
    {
      "bufferView": 2,
      "byteOffset": 110016,
      "componentType": 5126,
      "count": 9072,
      "max": [
        1.0,
        1.0,
        1.0
      ],
      "min": [
        -1.0,
        -1.0,
        -1.0
      ],
      "type": "VEC3"
    },
    {
      "bufferView": 1,
      "byteOffset": 384,
      "componentType": 5126,
      "count": 9072,
      "max": [
        1.0,
        1.0
      ],
      "min": [
        0.0,
        0.0
      ],
      "type": "VEC2"
    },
    {
      "bufferView": 0,
      "byteOffset": 288,
      "componentType": 5125,
      "count": 13608,
      "type": "SCALAR"
    },
    {
      "bufferView": 2,
      "byteOffset": 218880,
      "componentType": 5126,
      "count": 2328,
      "max": [
        6.500000476837158,
        0.30000001192092896,
        0.020000001415610313
      ],
      "min": [
        -6.500000476837158,
        0.0,
        -0.020000001415610313
      ],
      "type": "VEC3"
    },
    {
      "bufferView": 2,
      "byteOffset": 246816,
      "componentType": 5126,
      "count": 2328,
      "max": [
        1.0,
        1.0,
        1.0
      ],
      "min": [
        -1.0,
        -1.0,
        -1.0
      ],
      "type": "VEC3"
    },
    {
      "bufferView": 1,
      "byteOffset": 72960,
      "componentType": 5126,
      "count": 2328,
      "max": [
        1.0,
        1.0
      ],
      "min": [
        0.0,
        0.0
      ],
      "type": "VEC2"
    },
    {
      "bufferView": 0,
      "byteOffset": 54720,
      "componentType": 5125,
      "count": 3492,
      "type": "SCALAR"
    },
    {
      "bufferView": 2,
      "byteOffset": 274752,
      "componentType": 5126,
      "count": 240,
      "max": [
        6.500000476837158,
        0.020000001415610313,
        8.372000694274902
      ],
      "min": [
        -6.500000476837158,
        0.0,
        -0.020000001415610313
      ],
      "type": "VEC3"
    },
    {
      "bufferView": 2,
      "byteOffset": 277632,
      "componentType": 5126,
      "count": 240,
      "max": [
        1.0,
        1.0,
        1.0
      ],
      "min": [
        -1.0,
        -1.0,
        -1.0
      ],
      "type": "VEC3"
    },
    {
      "bufferView": 1,
      "byteOffset": 91584,
      "componentType": 5126,
      "count": 240,
      "max": [
        1.0,
        1.0
      ],
      "min": [
        0.0,
        0.0
      ],
      "type": "VEC2"
    },
    {
      "bufferView": 0,
      "byteOffset": 68688,
      "componentType": 5125,
      "count": 360,
      "type": "SCALAR"
    },
    {
      "bufferView": 2,
      "byteOffset": 280512,
      "componentType": 5126,
      "count": 65532,
      "max": [
        219.41046142578125,
        69.39998626708984,
        -3.828120231628418
      ],
      "min": [
        -0.923879086971283,
        56.59998321533203,
        -9.955718040466309
      ],
      "type": "VEC3"
    },
    {
      "bufferView": 2,
      "byteOffset": 1066896,
      "componentType": 5126,
      "count": 65532,
      "max": [
        0.9685646295547485,
        1.0,
        0.9997717142105103
      ],
      "min": [
        -0.8819270133972168,
        -1.0,
        -0.9997722506523132
      ],
      "type": "VEC3"
    },
    {
      "bufferView": 1,
      "byteOffset": 93504,
      "componentType": 5126,
      "count": 65532,
      "max": [
        1.0,
        1.0
      ],
      "min": [
        0.0,
        0.5
      ],
      "type": "VEC2"
    },
    {
      "bufferView": 0,
      "byteOffset": 70128,
      "componentType": 5125,
      "count": 125880,
      "type": "SCALAR"
    },
    {
      "bufferView": 2,
      "byteOffset": 1853280,
      "componentType": 5126,
      "count": 65532,
      "max": [
        219.41046142578125,
        58.59998321533203,
        -2.1783828735351563
      ],
      "min": [
        -0.923879086971283,
        43.9999885559082,
        -8.541657447814941
      ],
      "type": "VEC3"
    },
    {
      "bufferView": 2,
      "byteOffset": 2639664,
      "componentType": 5126,
      "count": 65532,
      "max": [
        0.9685646295547485,
        1.0,
        0.9997717142105103
      ],
      "min": [
        -0.8819270133972168,
        -1.0,
        -0.9997722506523132
      ],
      "type": "VEC3"
    },
    {
      "bufferView": 1,
      "byteOffset": 617760,
      "componentType": 5126,
      "count": 65532,
      "max": [
        1.0,
        1.0
      ],
      "min": [
        0.0,
        0.5
      ],
      "type": "VEC2"
    },
    {
      "bufferView": 0,
      "byteOffset": 573648,
      "componentType": 5125,
      "count": 125850,
      "type": "SCALAR"
    },
    {
      "bufferView": 2,
      "byteOffset": 3426048,
      "componentType": 5126,
      "count": 65533,
      "max": [
        219.41046142578125,
        45.9999885559082,
        1.8281222581863403
      ],
      "min": [
        -0.923879086971283,
        13.40000057220459,
        -6.89192008972168
      ],
      "type": "VEC3"
    },
    {
      "bufferView": 2,
      "byteOffset": 4212444,
      "componentType": 5126,
      "count": 65533,
      "max": [
        0.9685646295547485,
        1.0,
        0.9997717142105103
      ],
      "min": [
        -0.8819270133972168,
        -1.0,
        -0.9997722506523132
      ],
      "type": "VEC3"
    },
    {
      "bufferView": 1,
      "byteOffset": 1142016,
      "componentType": 5126,
      "count": 65533,
      "max": [
        1.0,
        1.0
      ],
      "min": [
        0.0,
        0.5
      ],
      "type": "VEC2"
    },
    {
      "bufferView": 0,
      "byteOffset": 1077048,
      "componentType": 5125,
      "count": 125889,
      "type": "SCALAR"
    },
    {
      "bufferView": 2,
      "byteOffset": 4998840,
      "componentType": 5126,
      "count": 65532,
      "max": [
        219.41046142578125,
        15.40000057220459,
        3.7135372161865234
      ],
      "min": [
        -0.923879086971283,
        -1.0,
        -2.8854150772094727
      ],
      "type": "VEC3"
    },
    {
      "bufferView": 2,
      "byteOffset": 5785224,
      "componentType": 5126,
      "count": 65532,
      "max": [
        0.9685646295547485,
        1.0,
        0.9997717142105103
      ],
      "min": [
        -0.8819272518157959,
        -1.0,
        -0.9997722506523132
      ],
      "type": "VEC3"
    },
    {
      "bufferView": 1,
      "byteOffset": 1666280,
      "componentType": 5126,
      "count": 65532,
      "max": [
        1.0,
        1.0
      ],
      "min": [
        0.0,
        0.5
      ],
      "type": "VEC2"
    },
    {
      "bufferView": 0,
      "byteOffset": 1580604,
      "componentType": 5125,
      "count": 125352,
      "type": "SCALAR"
    },
    {
      "bufferView": 2,
      "byteOffset": 6571608,
      "componentType": 5126,
      "count": 65534,
      "max": [
        219.41046142578125,
        26.199996948242188,
        3.2421834468841553
      ],
      "min": [
        -0.923879086971283,
        2.5999999046325684,
        -4.29947566986084
      ],
      "type": "VEC3"
    },
    {
      "bufferView": 2,
      "byteOffset": 7358016,
      "componentType": 5126,
      "count": 65534,
      "max": [
        0.9685646295547485,
        1.0,
        0.9997717142105103
      ],
      "min": [
        -0.8819271922111511,
        -1.0,
        -0.9997722506523132
      ],
      "type": "VEC3"
    },
    {
      "bufferView": 1,
      "byteOffset": 2190536,
      "componentType": 5126,
      "count": 65534,
      "max": [
        1.0,
        1.0
      ],
      "min": [
        0.0,
        0.5
      ],
      "type": "VEC2"
    },
    {
      "bufferView": 0,
      "byteOffset": 2082012,
      "componentType": 5125,
      "count": 125448,
      "type": "SCALAR"
    },
    {
      "bufferView": 2,
      "byteOffset": 8144424,
      "componentType": 5126,
      "count": 56609,
      "max": [
        219.41046142578125,
        36.99999237060547,
        0.4140615463256836
      ],
      "min": [
        -0.923879086971283,
        24.199996948242188,
        -5.713536262512207
      ],
      "type": "VEC3"
    },
    {
      "bufferView": 2,
      "byteOffset": 8823732,
      "componentType": 5126,
      "count": 56609,
      "max": [
        0.9685646295547485,
        1.0,
        0.9997717142105103
      ],
      "min": [
        -0.8819270133972168,
        -1.0,
        -0.9997722506523132
      ],
      "type": "VEC3"
    },
    {
      "bufferView": 1,
      "byteOffset": 2714808,
      "componentType": 5126,
      "count": 56609,
      "max": [
        1.0,
        1.0
      ],
      "min": [
        0.0,
        0.5
      ],
      "type": "VEC2"
    },
    {
      "bufferView": 0,
      "byteOffset": 2583804,
      "componentType": 5125,
      "count": 108681,
      "type": "SCALAR"
    }
  ],
  "asset": {
    "extras": {
      "author": "ostrogotsky (https://sketchfab.com/ostrogotsky)",
      "license": "CC-BY-4.0 (http://creativecommons.org/licenses/by/4.0/)",
      "source": "https://sketchfab.com/3d-models/garage-roof-metal-frame-trusses-and-tiles-4cc44fc1b4994744ba15094bb52047c4",
      "title": "Garage roof metal frame trusses and tiles"
    },
    "generator": "Sketchfab-12.66.0",
    "version": "2.0"
  },
  "bufferViews": [
    {
      "buffer": 0,
      "byteLength": 3018528,
      "name": "floatBufferViews",
      "target": 34963
    },
    {
      "buffer": 0,
      "byteLength": 3167680,
      "byteOffset": 3018528,
      "byteStride": 8,
      "name": "floatBufferViews",
      "target": 34962
    },
    {
      "buffer": 0,
      "byteLength": 9503040,
      "byteOffset": 6186208,
      "byteStride": 12,
      "name": "floatBufferViews",
      "target": 34962
    }
  ],
  "buffers": [
    {
      "byteLength": 15689248,
      "uri": "scene.bin"
    }
  ],
  "materials": [
    {
      "doubleSided": true,
      "name": "Scene_-_Root",
      "pbrMetallicRoughness": {
        "metallicFactor": 0.0,
        "roughnessFactor": 0.6
      }
    }
  ],
  "meshes": [
    {
      "name": "Object_0",
      "primitives": [
        {
          "attributes": {
            "NORMAL": 1,
            "POSITION": 0,
            "TEXCOORD_0": 2
          },
          "indices": 3,
          "material": 0,
          "mode": 4
        }
      ]
    },
    {
      "name": "Object_1",
      "primitives": [
        {
          "attributes": {
            "NORMAL": 5,
            "POSITION": 4,
            "TEXCOORD_0": 6
          },
          "indices": 7,
          "material": 0,
          "mode": 4
        }
      ]
    },
    {
      "name": "Object_2",
      "primitives": [
        {
          "attributes": {
            "NORMAL": 9,
            "POSITION": 8,
            "TEXCOORD_0": 10
          },
          "indices": 11,
          "material": 0,
          "mode": 4
        }
      ]
    },
    {
      "name": "Object_3",
      "primitives": [
        {
          "attributes": {
            "NORMAL": 13,
            "POSITION": 12,
            "TEXCOORD_0": 14
          },
          "indices": 15,
          "material": 0,
          "mode": 4
        }
      ]
    },
    {
      "name": "Object_4",
      "primitives": [
        {
          "attributes": {
            "NORMAL": 17,
            "POSITION": 16,
            "TEXCOORD_0": 18
          },
          "indices": 19,
          "material": 0,
          "mode": 4
        }
      ]
    },
    {
      "name": "Object_5",
      "primitives": [
        {
          "attributes": {
            "NORMAL": 21,
            "POSITION": 20,
            "TEXCOORD_0": 22
          },
          "indices": 23,
          "material": 0,
          "mode": 4
        }
      ]
    },
    {
      "name": "Object_6",
      "primitives": [
        {
          "attributes": {
            "NORMAL": 25,
            "POSITION": 24,
            "TEXCOORD_0": 26
          },
          "indices": 27,
          "material": 0,
          "mode": 4
        }
      ]
    },
    {
      "name": "Object_7",
      "primitives": [
        {
          "attributes": {
            "NORMAL": 29,
            "POSITION": 28,
            "TEXCOORD_0": 30
          },
          "indices": 31,
          "material": 0,
          "mode": 4
        }
      ]
    },
    {
      "name": "Object_8",
      "primitives": [
        {
          "attributes": {
            "NORMAL": 33,
            "POSITION": 32,
            "TEXCOORD_0": 34
          },
          "indices": 35,
          "material": 0,
          "mode": 4
        }
      ]
    },
    {
      "name": "Object_9",
      "primitives": [
        {
          "attributes": {
            "NORMAL": 37,
            "POSITION": 36,
            "TEXCOORD_0": 38
          },
          "indices": 39,
          "material": 0,
          "mode": 4
        }
      ]
    },
    {
      "name": "Object_10",
      "primitives": [
        {
          "attributes": {
            "NORMAL": 41,
            "POSITION": 40,
            "TEXCOORD_0": 42
          },
          "indices": 43,
          "material": 0,
          "mode": 4
        }
      ]
    }
  ],
  "nodes": [
    {
      "children": [
        1
      ],
      "matrix": [
        1.0,
        0.0,
        0.0,
        0.0,
        0.0,
        2.220446049250313e-16,
        -1.0,
        0.0,
        0.0,
        1.0,
        2.220446049250313e-16,
        0.0,
        0.0,
        0.0,
        0.0,
        1.0
      ],
      "name": "Sketchfab_model"
    },
    {
      "children": [
        2
      ],
      "name": "root"
    },
    {
      "children": [
        3,
        5,
        7,
        9,
        11,
        13
      ],
      "matrix": [
        1.0,
        0.0,
        0.0,
        0.0,
        0.0,
        2.220446049250313e-16,
        1.0,
        0.0,
        0.0,
        -1.0,
        2.220446049250313e-16,
        0.0,
        0.0,
        0.0,
        0.0,
        1.0
      ],
      "name": "GLTF_SceneRootNode"
    },
    {
      "children": [
        4
      ],
      "matrix": [
        6.500000476837158,
        0.0,
        0.0,
        0.0,
        0.0,
        1.0,
        0.0,
        0.0,
        0.0,
        0.0,
        4.200000286102295,
        0.0,
        0.0,
        0.0,
        0.0,
        1.0
      ],
      "name": "Layout_0"
    },
    {
      "mesh": 0,
      "name": "Object_4"
    },
    {
      "children": [
        6
      ],
      "matrix": [
        6.500000476837158,
        0.0,
        0.0,
        0.0,
        0.0,
        2.5,
        0.0,
        0.0,
        0.0,
        0.0,
        1.0,
        0.0,
        0.0,
        2.5,
        -5.200000286102295,
        1.0
      ],
      "name": "Building_1"
    },
    {
      "mesh": 1,
      "name": "Object_6"
    },
    {
      "children": [
        8
      ],
      "matrix": [
        1.0,
        0.0,
        0.0,
        0.0,
        0.0,
        0.7356142387359369,
        -0.6774006877535245,
        0.0,
        0.0,
        0.6774006877535245,
        0.7356142387359369,
        0.0,
        6.474996089935303,
        2.9393959045410156,
        4.177535533905029,
        1.0
      ],
      "name": "Truss2_2"
    },
    {
      "mesh": 2,
      "name": "Object_8"
    },
    {
      "children": [
        10
      ],
      "matrix": [
        1.0,
        0.0,
        0.0,
        0.0,
        0.0,
        1.0,
        0.0,
        0.0,
        0.0,
        0.0,
        1.0,
        0.0,
        0.0,
        2.599398374557495,
        3.7800002098083496,
        1.0
      ],
      "name": "Truss1_3"
    },
    {
      "mesh": 3,
      "name": "Object_10"
    },
    {
      "children": [
        12
      ],
      "matrix": [
        1.0,
        0.0,
        0.0,
        0.0,
        0.0,
        0.9988672450223324,
        0.04758389245843309,
        0.0,
        0.0,
        -0.04758389245843309,
        0.9988672450223324,
        0.0,
        0.0,
        3.598390579223633,
        -4.165343761444092,
        1.0
      ],
      "name": "Plane_4"
    },
    {
      "mesh": 4,
      "name": "Object_12"
    },
    {
      "children": [
        14,
        15,
        16,
        17,
        18,
        19
      ],
      "matrix": [
        0.05870794257692812,
        0.0009705241687595728,
        -1.3320058940458343e-05,
        0.0,
        2.0401441212366913e-10,
        -0.001678270247765142,
        -0.12228097992513488,
        -0.0,
        0.0009706155707161449,
        -0.05870241402380313,
        0.0008056732550432324,
        0.0,
        -6.417360305786133,
        3.2301688194274902,
        4.176919937133789,
        1.0
      ],
      "name": "tile_5"
    },
    {
      "mesh": 5,
      "name": "Object_14"
    },
    {
      "mesh": 6,
      "name": "Object_15"
    },
    {
      "mesh": 7,
      "name": "Object_16"
    },
    {
      "mesh": 8,
      "name": "Object_17"
    },
    {
      "mesh": 9,
      "name": "Object_18"
    },
    {
      "mesh": 10,
      "name": "Object_19"
    }
  ],
  "scene": 0,
  "scenes": [
    {
      "name": "Sketchfab_Scene",
      "nodes": [
        0
      ]
    }
  ]
}
